M48
;Layer_Color=9474304
;FILE_FORMAT=2:5
INCH,LZ
;TYPE=PLATED
T1F00S00C0.02362
T2F00S00C0.02800
T3F00S00C0.02874
T4F00S00C0.03000
T5F00S00C0.03346
T6F00S00C0.03543
T7F00S00C0.06299
%
T01
X-0314094Y-0086181
X-026685
T02
X-0271051Y-0174724
X-0255303Y-0143228
X-0223807
X-0192311
X-0160815
X-0129319
X-0097823
X-0066327
X-0034831
X-0050579Y-0174724
X-0082075
X-0113571
X-0145067
X-0176563
X-0019083
X-0003335Y-0143228
X-0019083Y-0111732
X-0003335Y-0080236
Y-0017244
X-0066327
X-0097823
X-0129319
X-0160815
X-0145067Y-004874
X-0176563
X-0129319Y-0080236
X-0082075Y-0111732
X-0050579
Y-004874
X-0082075
X-0208059
X-0239555
X-0223807Y-0017244
X-0192311
Y-0080236
X-0208059Y-0111732
X-0239555
X-0271051
X-0302547
X-0328626
X-0286799Y-0080236
X-0302547Y-004874
X-0286799Y-0017244
X-0255303
X-0318295
T03
X-0160787Y-0128937
X-0155787Y-0123937
X-0150787Y-0128937
X-0191457Y-0090827
X-0196457Y-0085827
X-0201457Y-0090827
X-0201457Y-0037953
X-0191457
X-0196457Y-0032953
T04
X-0338189Y-0172677
X-0318189Y-0142677
X-0243189
Y-0172677
X-015811Y-008
Y-007
Y-006
X-014811
Y-007
Y-008
X-0232953Y-0079921
X-0242953
Y-0069921
Y-0059921
X-0232953
Y-0069921
T05
X-0106929Y-0116102
X-0096929
X-0087205Y-0077992
Y-0067992
X-0057323Y-0072205
X-0047323
X-0272362Y-0053314
Y-0043314
X-0307005Y-0043314
Y-0053314
T06
X-0020001Y0000353
X-0010001
X-0030002
X-0040001
X-0115472Y-0058898
Y-008685
X-0345031Y-0079686
Y-0069686
Y-0059686
Y-0049686
T07
X-0254134Y-0118465
X-0159095Y-002878
M30
