G04*
G04 #@! TF.GenerationSoftware,Altium Limited,Altium Designer,22.1.2 (22)*
G04*
G04 Layer_Color=8388736*
%FSLAX25Y25*%
%MOIN*%
G70*
G04*
G04 #@! TF.SameCoordinates,7B28BA5E-EB16-4CEF-8106-4BD257A4405A*
G04*
G04*
G04 #@! TF.FilePolarity,Negative*
G04*
G01*
G75*
%ADD16R,0.06706X0.06706*%
%ADD17C,0.06706*%
%ADD18R,0.06706X0.06706*%
%ADD19C,0.06800*%
%ADD20C,0.09646*%
%ADD21C,0.05249*%
%ADD22R,0.05249X0.05249*%
%ADD23R,0.06800X0.06800*%
%ADD24C,0.06312*%
%ADD25C,0.05524*%
D16*
X-345031Y-49686D02*
D03*
X-115472Y-86850D02*
D03*
D17*
X-345031Y-59686D02*
D03*
Y-69686D02*
D03*
Y-79686D02*
D03*
X-20001Y353D02*
D03*
X-30002D02*
D03*
X-40001D02*
D03*
X-115472Y-58898D02*
D03*
D18*
X-10001Y353D02*
D03*
D19*
X-158110Y-70000D02*
D03*
Y-60000D02*
D03*
X-242953Y-79921D02*
D03*
Y-69921D02*
D03*
X-232953Y-59921D02*
D03*
X-148110Y-60000D02*
D03*
X-158110Y-80000D02*
D03*
X-148110Y-70000D02*
D03*
X-232953Y-79921D02*
D03*
X-243189Y-172677D02*
D03*
X-318189Y-142677D02*
D03*
X-243189D02*
D03*
X-338189Y-172677D02*
D03*
X-232953Y-69921D02*
D03*
D20*
X-159095Y-28780D02*
D03*
X-254134Y-118465D02*
D03*
D21*
X-201457Y-37953D02*
D03*
X-196457Y-32953D02*
D03*
X-196457Y-85827D02*
D03*
X-201457Y-90827D02*
D03*
X-160787Y-128937D02*
D03*
X-155787Y-123937D02*
D03*
D22*
X-191457Y-37953D02*
D03*
X-191457Y-90827D02*
D03*
X-150787Y-128937D02*
D03*
D23*
X-148110Y-80000D02*
D03*
X-242953Y-59921D02*
D03*
D24*
X-307005Y-43314D02*
D03*
Y-53314D02*
D03*
X-47323Y-72205D02*
D03*
X-57323D02*
D03*
X-87205Y-77992D02*
D03*
Y-67992D02*
D03*
X-272362Y-53314D02*
D03*
Y-43314D02*
D03*
X-96929Y-116102D02*
D03*
X-106929D02*
D03*
D25*
X-266850Y-86181D02*
D03*
X-314094D02*
D03*
M02*
