G04*
G04 #@! TF.GenerationSoftware,Altium Limited,Altium Designer,22.1.2 (22)*
G04*
G04 Layer_Color=2752767*
%FSLAX25Y25*%
%MOIN*%
G70*
G04*
G04 #@! TF.SameCoordinates,7B28BA5E-EB16-4CEF-8106-4BD257A4405A*
G04*
G04*
G04 #@! TF.FilePolarity,Positive*
G04*
G01*
G75*
%ADD41C,0.00200*%
%ADD42C,0.00267*%
D41*
X-345831Y-50486D02*
Y-48886D01*
X-344231D01*
Y-50486D01*
X-345831D01*
Y-60486D02*
Y-58886D01*
X-344231D01*
Y-60486D01*
X-345831D01*
Y-70486D02*
Y-68886D01*
X-344231D01*
Y-70486D01*
X-345831D01*
Y-80486D02*
Y-78886D01*
X-344231D01*
Y-80486D01*
X-345831D01*
X-20801Y-447D02*
Y1153D01*
X-19202D01*
Y-447D01*
X-20801D01*
X-30801D02*
Y1153D01*
X-29201D01*
Y-447D01*
X-30801D01*
X-40802D02*
Y1153D01*
X-39202D01*
Y-447D01*
X-40802D01*
X-10802D02*
Y1153D01*
X-9201D01*
Y-447D01*
X-10802D01*
X-159095Y-29579D02*
X-159895Y-27979D01*
X-158294D01*
X-159095Y-29579D01*
X-201457Y-38753D02*
X-201057Y-38353D01*
X-200657D01*
X-201057Y-37953D01*
X-200657Y-37553D01*
X-201057D01*
X-201457Y-37153D01*
X-201857Y-37553D01*
X-202257D01*
X-201857Y-37953D01*
X-202257Y-38353D01*
X-201857D01*
X-201457Y-38753D01*
X-191457D02*
X-191057Y-38353D01*
X-190657D01*
X-191057Y-37953D01*
X-190657Y-37553D01*
X-191057D01*
X-191457Y-37153D01*
X-191857Y-37553D01*
X-192257D01*
X-191857Y-37953D01*
X-192257Y-38353D01*
X-191857D01*
X-191457Y-38753D01*
X-196457Y-33753D02*
X-196057Y-33353D01*
X-195657D01*
X-196057Y-32953D01*
X-195657Y-32553D01*
X-196057D01*
X-196457Y-32153D01*
X-196857Y-32553D01*
X-197257D01*
X-196857Y-32953D01*
X-197257Y-33353D01*
X-196857D01*
X-196457Y-33753D01*
X-254134Y-119265D02*
X-254934Y-117665D01*
X-253334D01*
X-254134Y-119265D01*
X-191457Y-91627D02*
X-191057Y-91227D01*
X-190657D01*
X-191057Y-90827D01*
X-190657Y-90427D01*
X-191057D01*
X-191457Y-90027D01*
X-191857Y-90427D01*
X-192257D01*
X-191857Y-90827D01*
X-192257Y-91227D01*
X-191857D01*
X-191457Y-91627D01*
X-196457Y-86627D02*
X-196057Y-86227D01*
X-195657D01*
X-196057Y-85827D01*
X-195657Y-85427D01*
X-196057D01*
X-196457Y-85027D01*
X-196857Y-85427D01*
X-197257D01*
X-196857Y-85827D01*
X-197257Y-86227D01*
X-196857D01*
X-196457Y-86627D01*
X-201457Y-91627D02*
X-201057Y-91227D01*
X-200657D01*
X-201057Y-90827D01*
X-200657Y-90427D01*
X-201057D01*
X-201457Y-90027D01*
X-201857Y-90427D01*
X-202257D01*
X-201857Y-90827D01*
X-202257Y-91227D01*
X-201857D01*
X-201457Y-91627D01*
X-160787Y-129737D02*
X-160387Y-129337D01*
X-159987D01*
X-160387Y-128937D01*
X-159987Y-128537D01*
X-160387D01*
X-160787Y-128137D01*
X-161187Y-128537D01*
X-161587D01*
X-161187Y-128937D01*
X-161587Y-129337D01*
X-161187D01*
X-160787Y-129737D01*
X-155787Y-124737D02*
X-155387Y-124337D01*
X-154987D01*
X-155387Y-123937D01*
X-154987Y-123537D01*
X-155387D01*
X-155787Y-123137D01*
X-156187Y-123537D01*
X-156587D01*
X-156187Y-123937D01*
X-156587Y-124337D01*
X-156187D01*
X-155787Y-124737D01*
X-150787Y-129737D02*
X-150387Y-129337D01*
X-149987D01*
X-150387Y-128937D01*
X-149987Y-128537D01*
X-150387D01*
X-150787Y-128137D01*
X-151187Y-128537D01*
X-151587D01*
X-151187Y-128937D01*
X-151587Y-129337D01*
X-151187D01*
X-150787Y-129737D01*
X-307805Y-44114D02*
X-307405Y-43314D01*
X-307805Y-42514D01*
X-307005Y-42914D01*
X-306205Y-42514D01*
X-306605Y-43314D01*
X-306205Y-44114D01*
X-307005Y-43714D01*
X-307805Y-44114D01*
Y-54114D02*
X-307405Y-53314D01*
X-307805Y-52514D01*
X-307005Y-52914D01*
X-306205Y-52514D01*
X-306605Y-53314D01*
X-306205Y-54114D01*
X-307005Y-53714D01*
X-307805Y-54114D01*
X-48123Y-73005D02*
X-47723Y-72205D01*
X-48123Y-71405D01*
X-47323Y-71805D01*
X-46523Y-71405D01*
X-46923Y-72205D01*
X-46523Y-73005D01*
X-47323Y-72605D01*
X-48123Y-73005D01*
X-58123D02*
X-57723Y-72205D01*
X-58123Y-71405D01*
X-57323Y-71805D01*
X-56523Y-71405D01*
X-56923Y-72205D01*
X-56523Y-73005D01*
X-57323Y-72605D01*
X-58123Y-73005D01*
X-88005Y-78792D02*
X-87605Y-77992D01*
X-88005Y-77192D01*
X-87205Y-77592D01*
X-86405Y-77192D01*
X-86805Y-77992D01*
X-86405Y-78792D01*
X-87205Y-78392D01*
X-88005Y-78792D01*
Y-68792D02*
X-87605Y-67992D01*
X-88005Y-67192D01*
X-87205Y-67592D01*
X-86405Y-67192D01*
X-86805Y-67992D01*
X-86405Y-68792D01*
X-87205Y-68392D01*
X-88005Y-68792D01*
X-273162Y-54114D02*
X-272762Y-53314D01*
X-273162Y-52514D01*
X-272362Y-52914D01*
X-271562Y-52514D01*
X-271962Y-53314D01*
X-271562Y-54114D01*
X-272362Y-53714D01*
X-273162Y-54114D01*
Y-44114D02*
X-272762Y-43314D01*
X-273162Y-42514D01*
X-272362Y-42914D01*
X-271562Y-42514D01*
X-271962Y-43314D01*
X-271562Y-44114D01*
X-272362Y-43714D01*
X-273162Y-44114D01*
X-97729Y-116902D02*
X-97329Y-116102D01*
X-97729Y-115302D01*
X-96929Y-115702D01*
X-96129Y-115302D01*
X-96529Y-116102D01*
X-96129Y-116902D01*
X-96929Y-116502D01*
X-97729Y-116902D01*
X-107729D02*
X-107329Y-116102D01*
X-107729Y-115302D01*
X-106929Y-115702D01*
X-106129Y-115302D01*
X-106529Y-116102D01*
X-106129Y-116902D01*
X-106929Y-116502D01*
X-107729Y-116902D01*
X-116272Y-87650D02*
Y-86050D01*
X-114672D01*
Y-87650D01*
X-116272D01*
X-267250Y-86581D02*
Y-86981D01*
X-266450D01*
Y-86581D01*
X-266050D01*
Y-85781D01*
X-266450D01*
Y-85381D01*
X-267250D01*
Y-85781D01*
X-267650D01*
Y-86581D01*
X-267250D01*
X-116272Y-59698D02*
Y-58098D01*
X-114672D01*
Y-59698D01*
X-116272D01*
X-314494Y-86581D02*
Y-86981D01*
X-313695D01*
Y-86581D01*
X-313295D01*
Y-85781D01*
X-313695D01*
Y-85381D01*
X-314494D01*
Y-85781D01*
X-314895D01*
Y-86581D01*
X-314494D01*
X-329426Y-112532D02*
X-329026D01*
X-328626Y-112132D01*
X-328226Y-112532D01*
X-327826D01*
Y-112132D01*
X-328226Y-111732D01*
X-327826Y-111332D01*
Y-110932D01*
X-328226D01*
X-328626Y-111332D01*
X-329026Y-110932D01*
X-329426D01*
Y-111332D01*
X-329026Y-111732D01*
X-329426Y-112132D01*
Y-112532D01*
X-82875D02*
X-82475D01*
X-82075Y-112132D01*
X-81675Y-112532D01*
X-81275D01*
Y-112132D01*
X-81675Y-111732D01*
X-81275Y-111332D01*
Y-110932D01*
X-81675D01*
X-82075Y-111332D01*
X-82475Y-110932D01*
X-82875D01*
Y-111332D01*
X-82475Y-111732D01*
X-82875Y-112132D01*
Y-112532D01*
X-271851Y-175524D02*
X-271451D01*
X-271051Y-175125D01*
X-270651Y-175524D01*
X-270251D01*
Y-175125D01*
X-270651Y-174724D01*
X-270251Y-174325D01*
Y-173925D01*
X-270651D01*
X-271051Y-174325D01*
X-271451Y-173925D01*
X-271851D01*
Y-174325D01*
X-271451Y-174724D01*
X-271851Y-175125D01*
Y-175524D01*
X-4135Y-18044D02*
X-3735D01*
X-3335Y-17644D01*
X-2935Y-18044D01*
X-2535D01*
Y-17644D01*
X-2935Y-17244D01*
X-2535Y-16844D01*
Y-16444D01*
X-2935D01*
X-3335Y-16844D01*
X-3735Y-16444D01*
X-4135D01*
Y-16844D01*
X-3735Y-17244D01*
X-4135Y-17644D01*
Y-18044D01*
Y-81036D02*
X-3735D01*
X-3335Y-80636D01*
X-2935Y-81036D01*
X-2535D01*
Y-80636D01*
X-2935Y-80236D01*
X-2535Y-79836D01*
Y-79436D01*
X-2935D01*
X-3335Y-79836D01*
X-3735Y-79436D01*
X-4135D01*
Y-79836D01*
X-3735Y-80236D01*
X-4135Y-80636D01*
Y-81036D01*
X-19883Y-112532D02*
X-19483D01*
X-19083Y-112132D01*
X-18683Y-112532D01*
X-18283D01*
Y-112132D01*
X-18683Y-111732D01*
X-18283Y-111332D01*
Y-110932D01*
X-18683D01*
X-19083Y-111332D01*
X-19483Y-110932D01*
X-19883D01*
Y-111332D01*
X-19483Y-111732D01*
X-19883Y-112132D01*
Y-112532D01*
X-4135Y-144028D02*
X-3735D01*
X-3335Y-143628D01*
X-2935Y-144028D01*
X-2535D01*
Y-143628D01*
X-2935Y-143228D01*
X-2535Y-142828D01*
Y-142428D01*
X-2935D01*
X-3335Y-142828D01*
X-3735Y-142428D01*
X-4135D01*
Y-142828D01*
X-3735Y-143228D01*
X-4135Y-143628D01*
Y-144028D01*
X-19883Y-175524D02*
X-19483D01*
X-19083Y-175125D01*
X-18683Y-175524D01*
X-18283D01*
Y-175125D01*
X-18683Y-174724D01*
X-18283Y-174325D01*
Y-173925D01*
X-18683D01*
X-19083Y-174325D01*
X-19483Y-173925D01*
X-19883D01*
Y-174325D01*
X-19483Y-174724D01*
X-19883Y-175125D01*
Y-175524D01*
X-51379Y-49540D02*
X-50979D01*
X-50579Y-49140D01*
X-50179Y-49540D01*
X-49779D01*
Y-49140D01*
X-50179Y-48740D01*
X-49779Y-48340D01*
Y-47940D01*
X-50179D01*
X-50579Y-48340D01*
X-50979Y-47940D01*
X-51379D01*
Y-48340D01*
X-50979Y-48740D01*
X-51379Y-49140D01*
Y-49540D01*
Y-112532D02*
X-50979D01*
X-50579Y-112132D01*
X-50179Y-112532D01*
X-49779D01*
Y-112132D01*
X-50179Y-111732D01*
X-49779Y-111332D01*
Y-110932D01*
X-50179D01*
X-50579Y-111332D01*
X-50979Y-110932D01*
X-51379D01*
Y-111332D01*
X-50979Y-111732D01*
X-51379Y-112132D01*
Y-112532D01*
X-35631Y-144028D02*
X-35231D01*
X-34831Y-143628D01*
X-34431Y-144028D01*
X-34031D01*
Y-143628D01*
X-34431Y-143228D01*
X-34031Y-142828D01*
Y-142428D01*
X-34431D01*
X-34831Y-142828D01*
X-35231Y-142428D01*
X-35631D01*
Y-142828D01*
X-35231Y-143228D01*
X-35631Y-143628D01*
Y-144028D01*
X-51379Y-175524D02*
X-50979D01*
X-50579Y-175125D01*
X-50179Y-175524D01*
X-49779D01*
Y-175125D01*
X-50179Y-174724D01*
X-49779Y-174325D01*
Y-173925D01*
X-50179D01*
X-50579Y-174325D01*
X-50979Y-173925D01*
X-51379D01*
Y-174325D01*
X-50979Y-174724D01*
X-51379Y-175125D01*
Y-175524D01*
X-67127Y-18044D02*
X-66727D01*
X-66327Y-17644D01*
X-65927Y-18044D01*
X-65527D01*
Y-17644D01*
X-65927Y-17244D01*
X-65527Y-16844D01*
Y-16444D01*
X-65927D01*
X-66327Y-16844D01*
X-66727Y-16444D01*
X-67127D01*
Y-16844D01*
X-66727Y-17244D01*
X-67127Y-17644D01*
Y-18044D01*
X-82875Y-49540D02*
X-82475D01*
X-82075Y-49140D01*
X-81675Y-49540D01*
X-81275D01*
Y-49140D01*
X-81675Y-48740D01*
X-81275Y-48340D01*
Y-47940D01*
X-81675D01*
X-82075Y-48340D01*
X-82475Y-47940D01*
X-82875D01*
Y-48340D01*
X-82475Y-48740D01*
X-82875Y-49140D01*
Y-49540D01*
X-67127Y-144028D02*
X-66727D01*
X-66327Y-143628D01*
X-65927Y-144028D01*
X-65527D01*
Y-143628D01*
X-65927Y-143228D01*
X-65527Y-142828D01*
Y-142428D01*
X-65927D01*
X-66327Y-142828D01*
X-66727Y-142428D01*
X-67127D01*
Y-142828D01*
X-66727Y-143228D01*
X-67127Y-143628D01*
Y-144028D01*
X-82875Y-175524D02*
X-82475D01*
X-82075Y-175125D01*
X-81675Y-175524D01*
X-81275D01*
Y-175125D01*
X-81675Y-174724D01*
X-81275Y-174325D01*
Y-173925D01*
X-81675D01*
X-82075Y-174325D01*
X-82475Y-173925D01*
X-82875D01*
Y-174325D01*
X-82475Y-174724D01*
X-82875Y-175125D01*
Y-175524D01*
X-98623Y-18044D02*
X-98223D01*
X-97823Y-17644D01*
X-97423Y-18044D01*
X-97023D01*
Y-17644D01*
X-97423Y-17244D01*
X-97023Y-16844D01*
Y-16444D01*
X-97423D01*
X-97823Y-16844D01*
X-98223Y-16444D01*
X-98623D01*
Y-16844D01*
X-98223Y-17244D01*
X-98623Y-17644D01*
Y-18044D01*
Y-144028D02*
X-98223D01*
X-97823Y-143628D01*
X-97423Y-144028D01*
X-97023D01*
Y-143628D01*
X-97423Y-143228D01*
X-97023Y-142828D01*
Y-142428D01*
X-97423D01*
X-97823Y-142828D01*
X-98223Y-142428D01*
X-98623D01*
Y-142828D01*
X-98223Y-143228D01*
X-98623Y-143628D01*
Y-144028D01*
X-114371Y-175524D02*
X-113971D01*
X-113571Y-175125D01*
X-113171Y-175524D01*
X-112771D01*
Y-175125D01*
X-113171Y-174724D01*
X-112771Y-174325D01*
Y-173925D01*
X-113171D01*
X-113571Y-174325D01*
X-113971Y-173925D01*
X-114371D01*
Y-174325D01*
X-113971Y-174724D01*
X-114371Y-175125D01*
Y-175524D01*
X-130119Y-18044D02*
X-129719D01*
X-129319Y-17644D01*
X-128919Y-18044D01*
X-128519D01*
Y-17644D01*
X-128919Y-17244D01*
X-128519Y-16844D01*
Y-16444D01*
X-128919D01*
X-129319Y-16844D01*
X-129719Y-16444D01*
X-130119D01*
Y-16844D01*
X-129719Y-17244D01*
X-130119Y-17644D01*
Y-18044D01*
X-145867Y-49540D02*
X-145467D01*
X-145067Y-49140D01*
X-144667Y-49540D01*
X-144267D01*
Y-49140D01*
X-144667Y-48740D01*
X-144267Y-48340D01*
Y-47940D01*
X-144667D01*
X-145067Y-48340D01*
X-145467Y-47940D01*
X-145867D01*
Y-48340D01*
X-145467Y-48740D01*
X-145867Y-49140D01*
Y-49540D01*
X-130119Y-81036D02*
X-129719D01*
X-129319Y-80636D01*
X-128919Y-81036D01*
X-128519D01*
Y-80636D01*
X-128919Y-80236D01*
X-128519Y-79836D01*
Y-79436D01*
X-128919D01*
X-129319Y-79836D01*
X-129719Y-79436D01*
X-130119D01*
Y-79836D01*
X-129719Y-80236D01*
X-130119Y-80636D01*
Y-81036D01*
Y-144028D02*
X-129719D01*
X-129319Y-143628D01*
X-128919Y-144028D01*
X-128519D01*
Y-143628D01*
X-128919Y-143228D01*
X-128519Y-142828D01*
Y-142428D01*
X-128919D01*
X-129319Y-142828D01*
X-129719Y-142428D01*
X-130119D01*
Y-142828D01*
X-129719Y-143228D01*
X-130119Y-143628D01*
Y-144028D01*
X-145867Y-175524D02*
X-145467D01*
X-145067Y-175125D01*
X-144667Y-175524D01*
X-144267D01*
Y-175125D01*
X-144667Y-174724D01*
X-144267Y-174325D01*
Y-173925D01*
X-144667D01*
X-145067Y-174325D01*
X-145467Y-173925D01*
X-145867D01*
Y-174325D01*
X-145467Y-174724D01*
X-145867Y-175125D01*
Y-175524D01*
X-161615Y-18044D02*
X-161215D01*
X-160815Y-17644D01*
X-160415Y-18044D01*
X-160015D01*
Y-17644D01*
X-160415Y-17244D01*
X-160015Y-16844D01*
Y-16444D01*
X-160415D01*
X-160815Y-16844D01*
X-161215Y-16444D01*
X-161615D01*
Y-16844D01*
X-161215Y-17244D01*
X-161615Y-17644D01*
Y-18044D01*
X-177363Y-49540D02*
X-176963D01*
X-176563Y-49140D01*
X-176163Y-49540D01*
X-175763D01*
Y-49140D01*
X-176163Y-48740D01*
X-175763Y-48340D01*
Y-47940D01*
X-176163D01*
X-176563Y-48340D01*
X-176963Y-47940D01*
X-177363D01*
Y-48340D01*
X-176963Y-48740D01*
X-177363Y-49140D01*
Y-49540D01*
X-161615Y-144028D02*
X-161215D01*
X-160815Y-143628D01*
X-160415Y-144028D01*
X-160015D01*
Y-143628D01*
X-160415Y-143228D01*
X-160015Y-142828D01*
Y-142428D01*
X-160415D01*
X-160815Y-142828D01*
X-161215Y-142428D01*
X-161615D01*
Y-142828D01*
X-161215Y-143228D01*
X-161615Y-143628D01*
Y-144028D01*
X-177363Y-175524D02*
X-176963D01*
X-176563Y-175125D01*
X-176163Y-175524D01*
X-175763D01*
Y-175125D01*
X-176163Y-174724D01*
X-175763Y-174325D01*
Y-173925D01*
X-176163D01*
X-176563Y-174325D01*
X-176963Y-173925D01*
X-177363D01*
Y-174325D01*
X-176963Y-174724D01*
X-177363Y-175125D01*
Y-175524D01*
X-193111Y-18044D02*
X-192711D01*
X-192311Y-17644D01*
X-191911Y-18044D01*
X-191511D01*
Y-17644D01*
X-191911Y-17244D01*
X-191511Y-16844D01*
Y-16444D01*
X-191911D01*
X-192311Y-16844D01*
X-192711Y-16444D01*
X-193111D01*
Y-16844D01*
X-192711Y-17244D01*
X-193111Y-17644D01*
Y-18044D01*
X-208859Y-49540D02*
X-208459D01*
X-208059Y-49140D01*
X-207659Y-49540D01*
X-207259D01*
Y-49140D01*
X-207659Y-48740D01*
X-207259Y-48340D01*
Y-47940D01*
X-207659D01*
X-208059Y-48340D01*
X-208459Y-47940D01*
X-208859D01*
Y-48340D01*
X-208459Y-48740D01*
X-208859Y-49140D01*
Y-49540D01*
X-193111Y-81036D02*
X-192711D01*
X-192311Y-80636D01*
X-191911Y-81036D01*
X-191511D01*
Y-80636D01*
X-191911Y-80236D01*
X-191511Y-79836D01*
Y-79436D01*
X-191911D01*
X-192311Y-79836D01*
X-192711Y-79436D01*
X-193111D01*
Y-79836D01*
X-192711Y-80236D01*
X-193111Y-80636D01*
Y-81036D01*
X-208859Y-112532D02*
X-208459D01*
X-208059Y-112132D01*
X-207659Y-112532D01*
X-207259D01*
Y-112132D01*
X-207659Y-111732D01*
X-207259Y-111332D01*
Y-110932D01*
X-207659D01*
X-208059Y-111332D01*
X-208459Y-110932D01*
X-208859D01*
Y-111332D01*
X-208459Y-111732D01*
X-208859Y-112132D01*
Y-112532D01*
X-193111Y-144028D02*
X-192711D01*
X-192311Y-143628D01*
X-191911Y-144028D01*
X-191511D01*
Y-143628D01*
X-191911Y-143228D01*
X-191511Y-142828D01*
Y-142428D01*
X-191911D01*
X-192311Y-142828D01*
X-192711Y-142428D01*
X-193111D01*
Y-142828D01*
X-192711Y-143228D01*
X-193111Y-143628D01*
Y-144028D01*
X-224607Y-18044D02*
X-224207D01*
X-223807Y-17644D01*
X-223407Y-18044D01*
X-223007D01*
Y-17644D01*
X-223407Y-17244D01*
X-223007Y-16844D01*
Y-16444D01*
X-223407D01*
X-223807Y-16844D01*
X-224207Y-16444D01*
X-224607D01*
Y-16844D01*
X-224207Y-17244D01*
X-224607Y-17644D01*
Y-18044D01*
X-240355Y-49540D02*
X-239955D01*
X-239555Y-49140D01*
X-239155Y-49540D01*
X-238755D01*
Y-49140D01*
X-239155Y-48740D01*
X-238755Y-48340D01*
Y-47940D01*
X-239155D01*
X-239555Y-48340D01*
X-239955Y-47940D01*
X-240355D01*
Y-48340D01*
X-239955Y-48740D01*
X-240355Y-49140D01*
Y-49540D01*
Y-112532D02*
X-239955D01*
X-239555Y-112132D01*
X-239155Y-112532D01*
X-238755D01*
Y-112132D01*
X-239155Y-111732D01*
X-238755Y-111332D01*
Y-110932D01*
X-239155D01*
X-239555Y-111332D01*
X-239955Y-110932D01*
X-240355D01*
Y-111332D01*
X-239955Y-111732D01*
X-240355Y-112132D01*
Y-112532D01*
X-224607Y-144028D02*
X-224207D01*
X-223807Y-143628D01*
X-223407Y-144028D01*
X-223007D01*
Y-143628D01*
X-223407Y-143228D01*
X-223007Y-142828D01*
Y-142428D01*
X-223407D01*
X-223807Y-142828D01*
X-224207Y-142428D01*
X-224607D01*
Y-142828D01*
X-224207Y-143228D01*
X-224607Y-143628D01*
Y-144028D01*
X-256103Y-18044D02*
X-255703D01*
X-255303Y-17644D01*
X-254903Y-18044D01*
X-254503D01*
Y-17644D01*
X-254903Y-17244D01*
X-254503Y-16844D01*
Y-16444D01*
X-254903D01*
X-255303Y-16844D01*
X-255703Y-16444D01*
X-256103D01*
Y-16844D01*
X-255703Y-17244D01*
X-256103Y-17644D01*
Y-18044D01*
X-271851Y-112532D02*
X-271451D01*
X-271051Y-112132D01*
X-270651Y-112532D01*
X-270251D01*
Y-112132D01*
X-270651Y-111732D01*
X-270251Y-111332D01*
Y-110932D01*
X-270651D01*
X-271051Y-111332D01*
X-271451Y-110932D01*
X-271851D01*
Y-111332D01*
X-271451Y-111732D01*
X-271851Y-112132D01*
Y-112532D01*
X-256103Y-144028D02*
X-255703D01*
X-255303Y-143628D01*
X-254903Y-144028D01*
X-254503D01*
Y-143628D01*
X-254903Y-143228D01*
X-254503Y-142828D01*
Y-142428D01*
X-254903D01*
X-255303Y-142828D01*
X-255703Y-142428D01*
X-256103D01*
Y-142828D01*
X-255703Y-143228D01*
X-256103Y-143628D01*
Y-144028D01*
X-287599Y-18044D02*
X-287199D01*
X-286799Y-17644D01*
X-286399Y-18044D01*
X-285999D01*
Y-17644D01*
X-286399Y-17244D01*
X-285999Y-16844D01*
Y-16444D01*
X-286399D01*
X-286799Y-16844D01*
X-287199Y-16444D01*
X-287599D01*
Y-16844D01*
X-287199Y-17244D01*
X-287599Y-17644D01*
Y-18044D01*
X-303347Y-49540D02*
X-302947D01*
X-302547Y-49140D01*
X-302147Y-49540D01*
X-301747D01*
Y-49140D01*
X-302147Y-48740D01*
X-301747Y-48340D01*
Y-47940D01*
X-302147D01*
X-302547Y-48340D01*
X-302947Y-47940D01*
X-303347D01*
Y-48340D01*
X-302947Y-48740D01*
X-303347Y-49140D01*
Y-49540D01*
X-287599Y-81036D02*
X-287199D01*
X-286799Y-80636D01*
X-286399Y-81036D01*
X-285999D01*
Y-80636D01*
X-286399Y-80236D01*
X-285999Y-79836D01*
Y-79436D01*
X-286399D01*
X-286799Y-79836D01*
X-287199Y-79436D01*
X-287599D01*
Y-79836D01*
X-287199Y-80236D01*
X-287599Y-80636D01*
Y-81036D01*
X-303347Y-112532D02*
X-302947D01*
X-302547Y-112132D01*
X-302147Y-112532D01*
X-301747D01*
Y-112132D01*
X-302147Y-111732D01*
X-301747Y-111332D01*
Y-110932D01*
X-302147D01*
X-302547Y-111332D01*
X-302947Y-110932D01*
X-303347D01*
Y-111332D01*
X-302947Y-111732D01*
X-303347Y-112132D01*
Y-112532D01*
X-319095Y-18044D02*
X-318695D01*
X-318295Y-17644D01*
X-317895Y-18044D01*
X-317495D01*
Y-17644D01*
X-317895Y-17244D01*
X-317495Y-16844D01*
Y-16444D01*
X-317895D01*
X-318295Y-16844D01*
X-318695Y-16444D01*
X-319095D01*
Y-16844D01*
X-318695Y-17244D01*
X-319095Y-17644D01*
Y-18044D01*
D42*
X-157310Y-70000D02*
G03*
X-157310Y-70000I-800J0D01*
G01*
Y-60000D02*
G03*
X-157310Y-60000I-800J0D01*
G01*
X-242153Y-79921D02*
G03*
X-242153Y-79921I-800J0D01*
G01*
Y-69921D02*
G03*
X-242153Y-69921I-800J0D01*
G01*
X-232153Y-59921D02*
G03*
X-232153Y-59921I-800J0D01*
G01*
X-147310Y-60000D02*
G03*
X-147310Y-60000I-800J0D01*
G01*
X-157310Y-80000D02*
G03*
X-157310Y-80000I-800J0D01*
G01*
X-147310Y-70000D02*
G03*
X-147310Y-70000I-800J0D01*
G01*
X-232153Y-79921D02*
G03*
X-232153Y-79921I-800J0D01*
G01*
X-147310Y-80000D02*
G03*
X-147310Y-80000I-800J0D01*
G01*
X-242389Y-172677D02*
G03*
X-242389Y-172677I-800J0D01*
G01*
X-317389Y-142677D02*
G03*
X-317389Y-142677I-800J0D01*
G01*
X-242389D02*
G03*
X-242389Y-142677I-800J0D01*
G01*
X-337389Y-172677D02*
G03*
X-337389Y-172677I-800J0D01*
G01*
X-242153Y-59921D02*
G03*
X-242153Y-59921I-800J0D01*
G01*
X-232153Y-69921D02*
G03*
X-232153Y-69921I-800J0D01*
G01*
M02*
