G04*
G04 #@! TF.GenerationSoftware,Altium Limited,Altium Designer,22.1.2 (22)*
G04*
G04 Layer_Physical_Order=1*
G04 Layer_Color=255*
%FSLAX25Y25*%
%MOIN*%
G70*
G04*
G04 #@! TF.SameCoordinates,7B28BA5E-EB16-4CEF-8106-4BD257A4405A*
G04*
G04*
G04 #@! TF.FilePolarity,Positive*
G04*
G01*
G75*
%ADD20C,0.09646*%
%ADD26C,0.04724*%
%ADD27C,0.01500*%
%ADD28R,0.05906X0.05906*%
%ADD29C,0.05906*%
%ADD30R,0.05906X0.05906*%
%ADD31C,0.06000*%
%ADD32C,0.04449*%
%ADD33R,0.04449X0.04449*%
%ADD34R,0.06000X0.06000*%
%ADD35C,0.05512*%
%ADD36C,0.04724*%
%ADD37C,0.05000*%
G36*
X-4Y-189673D02*
X-355004D01*
Y10327D01*
X-4D01*
Y-189673D01*
D02*
G37*
%LPC*%
G36*
X-6049Y4305D02*
X-13954D01*
Y-3600D01*
X-6049D01*
Y4305D01*
D02*
G37*
G36*
X-159095Y-22929D02*
X-160236Y-23041D01*
X-161334Y-23374D01*
X-162345Y-23915D01*
X-163232Y-24642D01*
X-163959Y-25529D01*
X-164500Y-26540D01*
X-164638Y-26995D01*
X-182283D01*
X-182966Y-27131D01*
X-183545Y-27518D01*
X-183545Y-27518D01*
X-190756Y-34728D01*
X-193161D01*
X-193495Y-34228D01*
X-193315Y-33795D01*
X-193204Y-32953D01*
X-193315Y-32111D01*
X-193640Y-31327D01*
X-194157Y-30653D01*
X-194831Y-30136D01*
X-195615Y-29811D01*
X-196457Y-29700D01*
X-197298Y-29811D01*
X-198083Y-30136D01*
X-198756Y-30653D01*
X-199273Y-31327D01*
X-199598Y-32111D01*
X-199709Y-32953D01*
X-199598Y-33795D01*
X-199273Y-34579D01*
X-198756Y-35252D01*
X-198083Y-35769D01*
X-197298Y-36094D01*
X-196457Y-36205D01*
X-195615Y-36094D01*
X-195181Y-35914D01*
X-194681Y-36249D01*
Y-41177D01*
X-193241D01*
Y-45118D01*
X-193105Y-45801D01*
X-192718Y-46380D01*
X-167836Y-71262D01*
X-167258Y-71649D01*
X-166575Y-71784D01*
X-166575Y-71784D01*
X-161701D01*
X-161604Y-72017D01*
X-160963Y-72853D01*
X-160127Y-73494D01*
X-159154Y-73897D01*
X-158110Y-74035D01*
X-157066Y-73897D01*
X-156093Y-73494D01*
X-155257Y-72853D01*
X-154616Y-72017D01*
X-154213Y-71044D01*
X-154076Y-70000D01*
X-154213Y-68956D01*
X-154616Y-67983D01*
X-155257Y-67147D01*
X-156093Y-66506D01*
X-157066Y-66103D01*
X-158110Y-65965D01*
X-159154Y-66103D01*
X-160127Y-66506D01*
X-160963Y-67147D01*
X-161604Y-67983D01*
X-161701Y-68216D01*
X-165836D01*
X-189672Y-44379D01*
Y-41177D01*
X-188232D01*
Y-37252D01*
X-181544Y-30564D01*
X-164638D01*
X-164500Y-31019D01*
X-163959Y-32030D01*
X-163232Y-32917D01*
X-162345Y-33645D01*
X-161334Y-34185D01*
X-160236Y-34518D01*
X-159095Y-34631D01*
X-157953Y-34518D01*
X-156855Y-34185D01*
X-155844Y-33645D01*
X-154957Y-32917D01*
X-154230Y-32030D01*
X-153689Y-31019D01*
X-153356Y-29921D01*
X-153244Y-28780D01*
X-153356Y-27638D01*
X-153689Y-26540D01*
X-154230Y-25529D01*
X-154957Y-24642D01*
X-155844Y-23915D01*
X-156855Y-23374D01*
X-157953Y-23041D01*
X-159095Y-22929D01*
D02*
G37*
G36*
X-341078Y-45733D02*
X-348983D01*
Y-53638D01*
X-341078D01*
Y-45733D01*
D02*
G37*
G36*
X-307005Y-49526D02*
X-307985Y-49655D01*
X-308899Y-50033D01*
X-309683Y-50635D01*
X-310285Y-51420D01*
X-310664Y-52333D01*
X-310793Y-53314D01*
X-310664Y-54294D01*
X-310285Y-55208D01*
X-309683Y-55993D01*
X-308899Y-56595D01*
X-307985Y-56973D01*
X-307005Y-57102D01*
X-306024Y-56973D01*
X-305111Y-56595D01*
X-304326Y-55993D01*
X-303724Y-55208D01*
X-303345Y-54294D01*
X-303216Y-53314D01*
X-303345Y-52333D01*
X-303724Y-51420D01*
X-304326Y-50635D01*
X-305111Y-50033D01*
X-306024Y-49655D01*
X-307005Y-49526D01*
D02*
G37*
G36*
X-345031Y-55699D02*
X-346062Y-55835D01*
X-347024Y-56233D01*
X-347850Y-56867D01*
X-348483Y-57692D01*
X-348882Y-58654D01*
X-349018Y-59686D01*
X-348882Y-60718D01*
X-348483Y-61679D01*
X-347850Y-62505D01*
X-347024Y-63139D01*
X-346062Y-63537D01*
X-345031Y-63673D01*
X-343999Y-63537D01*
X-343037Y-63139D01*
X-342212Y-62505D01*
X-341578Y-61679D01*
X-341180Y-60718D01*
X-341044Y-59686D01*
X-341180Y-58654D01*
X-341578Y-57692D01*
X-342212Y-56867D01*
X-343037Y-56233D01*
X-343999Y-55835D01*
X-345031Y-55699D01*
D02*
G37*
G36*
X-158110Y-55966D02*
X-159154Y-56103D01*
X-160127Y-56506D01*
X-160963Y-57147D01*
X-161604Y-57983D01*
X-162007Y-58956D01*
X-162145Y-60000D01*
X-162007Y-61044D01*
X-161604Y-62017D01*
X-160963Y-62853D01*
X-160127Y-63494D01*
X-159154Y-63897D01*
X-158110Y-64034D01*
X-157066Y-63897D01*
X-156093Y-63494D01*
X-155257Y-62853D01*
X-154616Y-62017D01*
X-154213Y-61044D01*
X-154076Y-60000D01*
X-154213Y-58956D01*
X-154616Y-57983D01*
X-155257Y-57147D01*
X-156093Y-56506D01*
X-157066Y-56103D01*
X-158110Y-55966D01*
D02*
G37*
G36*
X-345031Y-65699D02*
X-346062Y-65835D01*
X-347024Y-66233D01*
X-347850Y-66867D01*
X-348483Y-67692D01*
X-348882Y-68654D01*
X-349018Y-69686D01*
X-348882Y-70718D01*
X-348483Y-71679D01*
X-347850Y-72505D01*
X-347024Y-73138D01*
X-346062Y-73537D01*
X-345031Y-73673D01*
X-343999Y-73537D01*
X-343037Y-73138D01*
X-342212Y-72505D01*
X-341578Y-71679D01*
X-341180Y-70718D01*
X-341044Y-69686D01*
X-341180Y-68654D01*
X-341578Y-67692D01*
X-342212Y-66867D01*
X-343037Y-66233D01*
X-343999Y-65835D01*
X-345031Y-65699D01*
D02*
G37*
G36*
X-272362Y-49525D02*
X-273343Y-49655D01*
X-274256Y-50033D01*
X-275041Y-50635D01*
X-275643Y-51420D01*
X-276021Y-52333D01*
X-276150Y-53314D01*
X-276021Y-54294D01*
X-275643Y-55208D01*
X-275041Y-55993D01*
X-274256Y-56595D01*
X-273343Y-56973D01*
X-272362Y-57102D01*
X-271382Y-56973D01*
X-271272Y-56928D01*
X-268635Y-59565D01*
Y-83312D01*
X-269248Y-83783D01*
X-269787Y-84486D01*
X-270126Y-85303D01*
X-270242Y-86181D01*
X-270126Y-87059D01*
X-269787Y-87877D01*
X-269248Y-88579D01*
X-268546Y-89118D01*
X-267728Y-89457D01*
X-266850Y-89572D01*
X-265973Y-89457D01*
X-265539Y-89277D01*
X-265256Y-89701D01*
X-280374Y-104819D01*
X-282115D01*
X-282798Y-104955D01*
X-283377Y-105342D01*
X-283377Y-105342D01*
X-316912Y-138877D01*
X-317145Y-138780D01*
X-318189Y-138643D01*
X-319233Y-138780D01*
X-320206Y-139183D01*
X-321042Y-139824D01*
X-321683Y-140660D01*
X-322086Y-141633D01*
X-322223Y-142677D01*
X-322086Y-143721D01*
X-321683Y-144694D01*
X-321042Y-145530D01*
X-320206Y-146171D01*
X-319233Y-146574D01*
X-318189Y-146712D01*
X-317145Y-146574D01*
X-316172Y-146171D01*
X-315336Y-145530D01*
X-314695Y-144694D01*
X-314598Y-144461D01*
X-292258D01*
X-291576Y-144326D01*
X-290997Y-143939D01*
X-248527Y-101469D01*
X-111732D01*
X-111049Y-101333D01*
X-110471Y-100947D01*
X-90176Y-80652D01*
X-89884Y-80671D01*
X-89099Y-81273D01*
X-88185Y-81651D01*
X-87205Y-81780D01*
X-86224Y-81651D01*
X-85311Y-81273D01*
X-84526Y-80671D01*
X-83924Y-79886D01*
X-83878Y-79776D01*
X-53110D01*
X-52427Y-79641D01*
X-51849Y-79254D01*
X-48413Y-75818D01*
X-48303Y-75864D01*
X-47323Y-75993D01*
X-46342Y-75864D01*
X-45429Y-75485D01*
X-44644Y-74884D01*
X-44042Y-74099D01*
X-43664Y-73185D01*
X-43534Y-72205D01*
X-43664Y-71224D01*
X-44042Y-70311D01*
X-44644Y-69526D01*
X-45429Y-68924D01*
X-46342Y-68546D01*
X-47323Y-68416D01*
X-48303Y-68546D01*
X-49217Y-68924D01*
X-50002Y-69526D01*
X-50604Y-70311D01*
X-50982Y-71224D01*
X-51111Y-72205D01*
X-50982Y-73185D01*
X-50937Y-73295D01*
X-53849Y-76208D01*
X-55866D01*
X-55966Y-75708D01*
X-55429Y-75485D01*
X-54644Y-74884D01*
X-54042Y-74099D01*
X-53664Y-73185D01*
X-53535Y-72205D01*
X-53664Y-71224D01*
X-54042Y-70311D01*
X-54644Y-69526D01*
X-55429Y-68924D01*
X-56342Y-68546D01*
X-57323Y-68416D01*
X-58303Y-68546D01*
X-59217Y-68924D01*
X-60002Y-69526D01*
X-60604Y-70311D01*
X-60649Y-70420D01*
X-82253D01*
X-83591Y-69082D01*
X-83546Y-68973D01*
X-83416Y-67992D01*
X-83546Y-67012D01*
X-83924Y-66098D01*
X-84526Y-65313D01*
X-85311Y-64711D01*
X-86224Y-64333D01*
X-87205Y-64204D01*
X-88185Y-64333D01*
X-89099Y-64711D01*
X-89884Y-65313D01*
X-90486Y-66098D01*
X-90531Y-66208D01*
X-105403D01*
X-111639Y-59972D01*
X-111621Y-59930D01*
X-111486Y-58898D01*
X-111621Y-57866D01*
X-112020Y-56904D01*
X-112653Y-56078D01*
X-113479Y-55445D01*
X-114441Y-55047D01*
X-115472Y-54911D01*
X-116504Y-55047D01*
X-117466Y-55445D01*
X-118292Y-56078D01*
X-118925Y-56904D01*
X-119012Y-57113D01*
X-137008D01*
X-137691Y-57249D01*
X-138270Y-57636D01*
X-138270Y-57636D01*
X-146833Y-66199D01*
X-147066Y-66103D01*
X-148110Y-65965D01*
X-149154Y-66103D01*
X-150127Y-66506D01*
X-150963Y-67147D01*
X-151604Y-67983D01*
X-152007Y-68956D01*
X-152145Y-70000D01*
X-152007Y-71044D01*
X-151837Y-71456D01*
X-156654Y-76274D01*
X-157066Y-76103D01*
X-158110Y-75965D01*
X-159154Y-76103D01*
X-160127Y-76506D01*
X-160963Y-77147D01*
X-161604Y-77983D01*
X-162007Y-78956D01*
X-162145Y-80000D01*
X-162007Y-81044D01*
X-161604Y-82017D01*
X-160963Y-82853D01*
X-160127Y-83494D01*
X-159154Y-83897D01*
X-158110Y-84035D01*
X-157066Y-83897D01*
X-156093Y-83494D01*
X-155257Y-82853D01*
X-154616Y-82017D01*
X-154213Y-81044D01*
X-154076Y-80000D01*
X-154213Y-78956D01*
X-154236Y-78902D01*
X-152572Y-77238D01*
X-152110Y-77430D01*
Y-84000D01*
X-144110D01*
Y-76000D01*
X-150681D01*
X-150872Y-75538D01*
X-149208Y-73875D01*
X-149154Y-73897D01*
X-148110Y-74035D01*
X-147066Y-73897D01*
X-146093Y-73494D01*
X-145257Y-72853D01*
X-144616Y-72017D01*
X-144213Y-71044D01*
X-144076Y-70000D01*
X-144213Y-68956D01*
X-144310Y-68723D01*
X-136269Y-60682D01*
X-119012D01*
X-118925Y-60891D01*
X-118292Y-61717D01*
X-117466Y-62350D01*
X-116504Y-62749D01*
X-115472Y-62884D01*
X-114441Y-62749D01*
X-114064Y-62593D01*
X-107403Y-69254D01*
X-106825Y-69641D01*
X-106142Y-69776D01*
X-106142Y-69776D01*
X-90531D01*
X-90486Y-69886D01*
X-89884Y-70671D01*
X-89099Y-71273D01*
X-88185Y-71651D01*
X-87205Y-71780D01*
X-86224Y-71651D01*
X-86114Y-71606D01*
X-84254Y-73466D01*
X-84254Y-73466D01*
X-83675Y-73853D01*
X-82992Y-73989D01*
X-82992Y-73989D01*
X-60649D01*
X-60604Y-74099D01*
X-60002Y-74884D01*
X-59217Y-75485D01*
X-58680Y-75708D01*
X-58780Y-76208D01*
X-83878D01*
X-83924Y-76098D01*
X-84526Y-75313D01*
X-85311Y-74711D01*
X-86224Y-74333D01*
X-87205Y-74204D01*
X-88185Y-74333D01*
X-89099Y-74711D01*
X-89884Y-75313D01*
X-90486Y-76098D01*
X-90618Y-76417D01*
X-90840Y-76462D01*
X-91419Y-76849D01*
X-112471Y-97901D01*
X-249266D01*
X-249266Y-97901D01*
X-249949Y-98037D01*
X-250528Y-98423D01*
X-292998Y-140893D01*
X-313228D01*
X-313419Y-140431D01*
X-281376Y-108388D01*
X-279635D01*
X-278952Y-108252D01*
X-278373Y-107865D01*
X-244230Y-73722D01*
X-243997Y-73818D01*
X-242953Y-73956D01*
X-241909Y-73818D01*
X-240935Y-73415D01*
X-240100Y-72774D01*
X-239459Y-71939D01*
X-239056Y-70965D01*
X-238918Y-69921D01*
X-239056Y-68877D01*
X-239152Y-68644D01*
X-234230Y-63722D01*
X-233997Y-63818D01*
X-232953Y-63956D01*
X-231909Y-63818D01*
X-230936Y-63415D01*
X-230100Y-62774D01*
X-229459Y-61939D01*
X-229056Y-60966D01*
X-228918Y-59921D01*
X-229056Y-58877D01*
X-229459Y-57904D01*
X-230100Y-57068D01*
X-230936Y-56427D01*
X-231909Y-56024D01*
X-232953Y-55887D01*
X-233997Y-56024D01*
X-234970Y-56427D01*
X-235806Y-57068D01*
X-236447Y-57904D01*
X-236850Y-58877D01*
X-236987Y-59921D01*
X-236850Y-60966D01*
X-236753Y-61199D01*
X-241676Y-66121D01*
X-241909Y-66024D01*
X-242953Y-65887D01*
X-243997Y-66024D01*
X-244970Y-66427D01*
X-245806Y-67068D01*
X-246447Y-67904D01*
X-246850Y-68877D01*
X-246987Y-69921D01*
X-246850Y-70965D01*
X-246753Y-71198D01*
X-263330Y-87776D01*
X-263754Y-87492D01*
X-263575Y-87059D01*
X-263459Y-86181D01*
X-263575Y-85303D01*
X-263913Y-84486D01*
X-264452Y-83783D01*
X-265066Y-83312D01*
Y-58826D01*
X-265202Y-58143D01*
X-265589Y-57564D01*
X-268748Y-54404D01*
X-268703Y-54294D01*
X-268574Y-53314D01*
X-268703Y-52333D01*
X-269081Y-51420D01*
X-269684Y-50635D01*
X-270468Y-50033D01*
X-271382Y-49655D01*
X-272362Y-49525D01*
D02*
G37*
G36*
X-232953Y-75887D02*
X-233997Y-76024D01*
X-234970Y-76427D01*
X-235806Y-77068D01*
X-236447Y-77904D01*
X-236850Y-78877D01*
X-236987Y-79921D01*
X-236850Y-80966D01*
X-236447Y-81938D01*
X-235806Y-82774D01*
X-234970Y-83415D01*
X-233997Y-83818D01*
X-232953Y-83956D01*
X-231909Y-83818D01*
X-230936Y-83415D01*
X-230100Y-82774D01*
X-229459Y-81938D01*
X-229056Y-80966D01*
X-228918Y-79921D01*
X-229056Y-78877D01*
X-229459Y-77904D01*
X-230100Y-77068D01*
X-230936Y-76427D01*
X-231909Y-76024D01*
X-232953Y-75887D01*
D02*
G37*
G36*
X-242953D02*
X-243997Y-76024D01*
X-244970Y-76427D01*
X-245806Y-77068D01*
X-246447Y-77904D01*
X-246850Y-78877D01*
X-246987Y-79921D01*
X-246850Y-80966D01*
X-246447Y-81938D01*
X-245806Y-82774D01*
X-244970Y-83415D01*
X-243997Y-83818D01*
X-242953Y-83956D01*
X-241909Y-83818D01*
X-240935Y-83415D01*
X-240100Y-82774D01*
X-239459Y-81938D01*
X-239056Y-80966D01*
X-238918Y-79921D01*
X-239056Y-78877D01*
X-239459Y-77904D01*
X-240100Y-77068D01*
X-240935Y-76427D01*
X-241909Y-76024D01*
X-242953Y-75887D01*
D02*
G37*
G36*
X-314094Y-82790D02*
X-314972Y-82905D01*
X-315790Y-83244D01*
X-316492Y-83783D01*
X-317031Y-84486D01*
X-317370Y-85303D01*
X-317486Y-86181D01*
X-317370Y-87059D01*
X-317031Y-87877D01*
X-316492Y-88579D01*
X-315790Y-89118D01*
X-314972Y-89457D01*
X-314094Y-89572D01*
X-313217Y-89457D01*
X-312399Y-89118D01*
X-311697Y-88579D01*
X-311158Y-87877D01*
X-310819Y-87059D01*
X-310703Y-86181D01*
X-310819Y-85303D01*
X-311158Y-84486D01*
X-311697Y-83783D01*
X-312399Y-83244D01*
X-313217Y-82905D01*
X-314094Y-82790D01*
D02*
G37*
G36*
X-188232Y-87602D02*
X-194681D01*
Y-94051D01*
X-188232D01*
Y-87602D01*
D02*
G37*
G36*
X-232953Y-65887D02*
X-233997Y-66024D01*
X-234970Y-66427D01*
X-235806Y-67068D01*
X-236447Y-67904D01*
X-236850Y-68877D01*
X-236987Y-69921D01*
X-236850Y-70965D01*
X-236447Y-71939D01*
X-235806Y-72774D01*
X-234970Y-73415D01*
X-233997Y-73818D01*
X-232953Y-73956D01*
X-231909Y-73818D01*
X-231676Y-73722D01*
X-213309Y-92088D01*
X-213309Y-92089D01*
X-212730Y-92475D01*
X-212047Y-92611D01*
X-212047Y-92611D01*
X-204152D01*
X-203756Y-93126D01*
X-203083Y-93643D01*
X-202298Y-93968D01*
X-201457Y-94079D01*
X-200615Y-93968D01*
X-199831Y-93643D01*
X-199157Y-93126D01*
X-198640Y-92453D01*
X-198315Y-91668D01*
X-198205Y-90827D01*
X-198315Y-89985D01*
X-198640Y-89201D01*
X-199157Y-88527D01*
X-199831Y-88010D01*
X-200615Y-87685D01*
X-201457Y-87574D01*
X-202298Y-87685D01*
X-203083Y-88010D01*
X-203756Y-88527D01*
X-204152Y-89043D01*
X-211308D01*
X-229152Y-71198D01*
X-229056Y-70965D01*
X-228918Y-69921D01*
X-229056Y-68877D01*
X-229459Y-67904D01*
X-230100Y-67068D01*
X-230936Y-66427D01*
X-231909Y-66024D01*
X-232953Y-65887D01*
D02*
G37*
G36*
X-20001Y4339D02*
X-21033Y4204D01*
X-21995Y3805D01*
X-22821Y3172D01*
X-23454Y2346D01*
X-23853Y1384D01*
X-23988Y353D01*
X-23853Y-679D01*
X-23454Y-1641D01*
X-23393Y-1721D01*
Y-61746D01*
X-47313Y-85667D01*
X-69885D01*
X-70763Y-85783D01*
X-71581Y-86121D01*
X-72283Y-86660D01*
X-98176Y-112554D01*
X-98823Y-112822D01*
X-99608Y-113424D01*
X-100210Y-114208D01*
X-100588Y-115122D01*
X-100717Y-116102D01*
X-100588Y-117083D01*
X-100210Y-117997D01*
X-99608Y-118781D01*
X-98823Y-119383D01*
X-97910Y-119762D01*
X-96929Y-119891D01*
X-95949Y-119762D01*
X-95035Y-119383D01*
X-94250Y-118781D01*
X-93648Y-117997D01*
X-93380Y-117350D01*
X-68480Y-92449D01*
X-45909D01*
X-45031Y-92334D01*
X-44692Y-92194D01*
X-44213Y-91995D01*
X-43511Y-91456D01*
X-17604Y-65549D01*
X-17065Y-64847D01*
X-16726Y-64029D01*
X-16668Y-63590D01*
X-16610Y-63151D01*
X-16610Y-63151D01*
Y-1721D01*
X-16549Y-1641D01*
X-16150Y-679D01*
X-16015Y353D01*
X-16150Y1384D01*
X-16549Y2346D01*
X-17182Y3172D01*
X-18008Y3805D01*
X-18970Y4204D01*
X-20001Y4339D01*
D02*
G37*
G36*
X-106929Y-112314D02*
X-107910Y-112443D01*
X-108823Y-112822D01*
X-109608Y-113424D01*
X-110210Y-114208D01*
X-110588Y-115122D01*
X-110717Y-116102D01*
X-110588Y-117083D01*
X-110543Y-117193D01*
X-120503Y-127153D01*
X-147563D01*
Y-125713D01*
X-152492D01*
X-152826Y-125213D01*
X-152646Y-124779D01*
X-152535Y-123937D01*
X-152646Y-123095D01*
X-152971Y-122311D01*
X-153488Y-121637D01*
X-154161Y-121121D01*
X-154946Y-120796D01*
X-155787Y-120685D01*
X-156629Y-120796D01*
X-157413Y-121121D01*
X-158087Y-121637D01*
X-158483Y-122153D01*
X-210526D01*
X-210526Y-122153D01*
X-211209Y-122289D01*
X-211788Y-122675D01*
X-230005Y-140893D01*
X-239598D01*
X-239695Y-140660D01*
X-240336Y-139824D01*
X-241172Y-139183D01*
X-242145Y-138780D01*
X-243189Y-138643D01*
X-244233Y-138780D01*
X-245206Y-139183D01*
X-246042Y-139824D01*
X-246683Y-140660D01*
X-247086Y-141633D01*
X-247223Y-142677D01*
X-247086Y-143721D01*
X-246683Y-144694D01*
X-246042Y-145530D01*
X-245206Y-146171D01*
X-244233Y-146574D01*
X-243189Y-146712D01*
X-242145Y-146574D01*
X-241172Y-146171D01*
X-240336Y-145530D01*
X-239695Y-144694D01*
X-239598Y-144461D01*
X-229266D01*
X-228584Y-144326D01*
X-228005Y-143939D01*
X-209787Y-125721D01*
X-158483D01*
X-158087Y-126237D01*
X-157413Y-126753D01*
X-156629Y-127078D01*
X-155787Y-127189D01*
X-154946Y-127078D01*
X-154512Y-126899D01*
X-154012Y-127233D01*
Y-132161D01*
X-147563D01*
Y-130721D01*
X-119764D01*
X-119081Y-130586D01*
X-118502Y-130199D01*
X-108019Y-119716D01*
X-107910Y-119762D01*
X-106929Y-119891D01*
X-105949Y-119762D01*
X-105035Y-119383D01*
X-104250Y-118781D01*
X-103648Y-117997D01*
X-103270Y-117083D01*
X-103141Y-116102D01*
X-103270Y-115122D01*
X-103648Y-114208D01*
X-104250Y-113424D01*
X-105035Y-112822D01*
X-105949Y-112443D01*
X-106929Y-112314D01*
D02*
G37*
G36*
X-254134Y-112614D02*
X-255275Y-112726D01*
X-256373Y-113059D01*
X-257384Y-113600D01*
X-258271Y-114327D01*
X-258999Y-115214D01*
X-259540Y-116226D01*
X-259872Y-117323D01*
X-259985Y-118465D01*
X-259872Y-119606D01*
X-259540Y-120704D01*
X-258999Y-121715D01*
X-258271Y-122602D01*
X-257384Y-123329D01*
X-256373Y-123870D01*
X-255275Y-124203D01*
X-254134Y-124316D01*
X-252992Y-124203D01*
X-251895Y-123870D01*
X-250883Y-123329D01*
X-249997Y-122602D01*
X-249269Y-121715D01*
X-248728Y-120704D01*
X-248395Y-119606D01*
X-248283Y-118465D01*
X-248395Y-117323D01*
X-248728Y-116226D01*
X-249269Y-115214D01*
X-249997Y-114327D01*
X-250883Y-113600D01*
X-251895Y-113059D01*
X-252992Y-112726D01*
X-254134Y-112614D01*
D02*
G37*
G36*
X-243189Y-168643D02*
X-244233Y-168780D01*
X-245206Y-169183D01*
X-246042Y-169824D01*
X-246683Y-170660D01*
X-247086Y-171633D01*
X-247223Y-172677D01*
X-247086Y-173721D01*
X-246683Y-174694D01*
X-246042Y-175530D01*
X-245206Y-176171D01*
X-244233Y-176574D01*
X-243189Y-176712D01*
X-242145Y-176574D01*
X-241172Y-176171D01*
X-240336Y-175530D01*
X-239695Y-174694D01*
X-239292Y-173721D01*
X-239155Y-172677D01*
X-239292Y-171633D01*
X-239695Y-170660D01*
X-240336Y-169824D01*
X-241172Y-169183D01*
X-242145Y-168780D01*
X-243189Y-168643D01*
D02*
G37*
G36*
X-338189D02*
X-339233Y-168780D01*
X-340206Y-169183D01*
X-341042Y-169824D01*
X-341683Y-170660D01*
X-342086Y-171633D01*
X-342224Y-172677D01*
X-342086Y-173721D01*
X-341683Y-174694D01*
X-341042Y-175530D01*
X-340206Y-176171D01*
X-339233Y-176574D01*
X-338189Y-176712D01*
X-337145Y-176574D01*
X-336172Y-176171D01*
X-335336Y-175530D01*
X-334695Y-174694D01*
X-334292Y-173721D01*
X-334155Y-172677D01*
X-334292Y-171633D01*
X-334695Y-170660D01*
X-335336Y-169824D01*
X-336172Y-169183D01*
X-337145Y-168780D01*
X-338189Y-168643D01*
D02*
G37*
%LPD*%
D20*
X-159095Y-28780D02*
D03*
X-254134Y-118465D02*
D03*
D26*
X-45909Y-89058D02*
X-20001Y-63151D01*
Y353D01*
X-69885Y-89058D02*
X-45909D01*
X-96929Y-116102D02*
X-69885Y-89058D01*
D27*
X-150787Y-128937D02*
X-119764D01*
X-106929Y-116102D01*
X-243189Y-142677D02*
X-229266D01*
X-210526Y-123937D01*
X-155787D01*
X-282115Y-106604D02*
X-279635D01*
X-318189Y-142677D02*
X-292258D01*
X-318189D02*
X-282115Y-106604D01*
X-279635D02*
X-242953Y-69921D01*
X-148110Y-70000D02*
X-137008Y-58898D01*
X-157857Y-80000D02*
X-148110Y-70253D01*
X-137008Y-58898D02*
X-115472D01*
X-158110Y-80000D02*
X-157857D01*
X-115472Y-58898D02*
X-115236D01*
X-182283Y-28780D02*
X-159095D01*
X-166575Y-70000D02*
X-158110D01*
X-242953Y-69921D02*
X-232953Y-59921D01*
X-292258Y-142677D02*
X-249266Y-99685D01*
X-148110Y-70253D02*
Y-70000D01*
X-191457Y-37953D02*
X-182283Y-28780D01*
X-191457Y-45118D02*
X-166575Y-70000D01*
X-191457Y-45118D02*
Y-37953D01*
X-249266Y-99685D02*
X-111732D01*
X-272362Y-53314D02*
X-266850Y-58826D01*
Y-86181D02*
Y-58826D01*
X-212047Y-90827D02*
X-201457D01*
X-232953Y-69921D02*
X-212047Y-90827D01*
X-111732Y-99685D02*
X-90158Y-78110D01*
X-115236Y-58898D02*
X-106142Y-67992D01*
X-87205D01*
X-82992Y-72205D01*
X-57323D01*
X-87205Y-77992D02*
X-53110D01*
X-47323Y-72205D01*
D28*
X-345031Y-49686D02*
D03*
X-115472Y-86850D02*
D03*
D29*
X-345031Y-59686D02*
D03*
Y-69686D02*
D03*
Y-79686D02*
D03*
X-20001Y353D02*
D03*
X-30002D02*
D03*
X-40001D02*
D03*
X-115472Y-58898D02*
D03*
D30*
X-10001Y353D02*
D03*
D31*
X-158110Y-70000D02*
D03*
Y-60000D02*
D03*
X-242953Y-79921D02*
D03*
Y-69921D02*
D03*
X-232953Y-59921D02*
D03*
X-148110Y-60000D02*
D03*
X-158110Y-80000D02*
D03*
X-148110Y-70000D02*
D03*
X-232953Y-79921D02*
D03*
X-243189Y-172677D02*
D03*
X-318189Y-142677D02*
D03*
X-243189D02*
D03*
X-338189Y-172677D02*
D03*
X-232953Y-69921D02*
D03*
D32*
X-201457Y-37953D02*
D03*
X-196457Y-32953D02*
D03*
X-196457Y-85827D02*
D03*
X-201457Y-90827D02*
D03*
X-160787Y-128937D02*
D03*
X-155787Y-123937D02*
D03*
D33*
X-191457Y-37953D02*
D03*
X-191457Y-90827D02*
D03*
X-150787Y-128937D02*
D03*
D34*
X-148110Y-80000D02*
D03*
X-242953Y-59921D02*
D03*
D35*
X-307005Y-43314D02*
D03*
Y-53314D02*
D03*
X-47323Y-72205D02*
D03*
X-57323D02*
D03*
X-87205Y-77992D02*
D03*
Y-67992D02*
D03*
X-272362Y-53314D02*
D03*
Y-43314D02*
D03*
X-96929Y-116102D02*
D03*
X-106929D02*
D03*
D36*
X-266850Y-86181D02*
D03*
X-314094D02*
D03*
D37*
X-328626Y-111732D02*
D03*
X-82075D02*
D03*
X-271051Y-174724D02*
D03*
X-3335Y-17244D02*
D03*
Y-80236D02*
D03*
X-19083Y-111732D02*
D03*
X-3335Y-143228D02*
D03*
X-19083Y-174724D02*
D03*
X-50579Y-48740D02*
D03*
Y-111732D02*
D03*
X-34831Y-143228D02*
D03*
X-50579Y-174724D02*
D03*
X-66327Y-17244D02*
D03*
X-82075Y-48740D02*
D03*
X-66327Y-143228D02*
D03*
X-82075Y-174724D02*
D03*
X-97823Y-17244D02*
D03*
Y-143228D02*
D03*
X-113571Y-174724D02*
D03*
X-129319Y-17244D02*
D03*
X-145067Y-48740D02*
D03*
X-129319Y-80236D02*
D03*
Y-143228D02*
D03*
X-145067Y-174724D02*
D03*
X-160815Y-17244D02*
D03*
X-176563Y-48740D02*
D03*
X-160815Y-143228D02*
D03*
X-176563Y-174724D02*
D03*
X-192311Y-17244D02*
D03*
X-208059Y-48740D02*
D03*
X-192311Y-80236D02*
D03*
X-208059Y-111732D02*
D03*
X-192311Y-143228D02*
D03*
X-223807Y-17244D02*
D03*
X-239555Y-48740D02*
D03*
Y-111732D02*
D03*
X-223807Y-143228D02*
D03*
X-255303Y-17244D02*
D03*
X-271051Y-111732D02*
D03*
X-255303Y-143228D02*
D03*
X-286799Y-17244D02*
D03*
X-302547Y-48740D02*
D03*
X-286799Y-80236D02*
D03*
X-302547Y-111732D02*
D03*
X-318295Y-17244D02*
D03*
M02*
