G04*
G04 #@! TF.GenerationSoftware,Altium Limited,Altium Designer,22.1.2 (22)*
G04*
G04 Layer_Color=255*
%FSLAX25Y25*%
%MOIN*%
G70*
G04*
G04 #@! TF.SameCoordinates,7B28BA5E-EB16-4CEF-8106-4BD257A4405A*
G04*
G04*
G04 #@! TF.FilePolarity,Positive*
G04*
G01*
G75*
%ADD20C,0.09646*%
%ADD28R,0.05906X0.05906*%
%ADD29C,0.05906*%
%ADD30R,0.05906X0.05906*%
%ADD31C,0.06000*%
%ADD32C,0.04449*%
%ADD33R,0.04449X0.04449*%
%ADD34R,0.06000X0.06000*%
%ADD35C,0.05512*%
%ADD36C,0.04724*%
D20*
X-159095Y-28780D02*
D03*
X-254134Y-118465D02*
D03*
D28*
X-345031Y-49686D02*
D03*
X-115472Y-86850D02*
D03*
D29*
X-345031Y-59686D02*
D03*
Y-69686D02*
D03*
Y-79686D02*
D03*
X-20001Y353D02*
D03*
X-30002D02*
D03*
X-40001D02*
D03*
X-115472Y-58898D02*
D03*
D30*
X-10001Y353D02*
D03*
D31*
X-158110Y-70000D02*
D03*
Y-60000D02*
D03*
X-242953Y-79921D02*
D03*
Y-69921D02*
D03*
X-232953Y-59921D02*
D03*
X-148110Y-60000D02*
D03*
X-158110Y-80000D02*
D03*
X-148110Y-70000D02*
D03*
X-232953Y-79921D02*
D03*
X-243189Y-172677D02*
D03*
X-318189Y-142677D02*
D03*
X-243189D02*
D03*
X-338189Y-172677D02*
D03*
X-232953Y-69921D02*
D03*
D32*
X-201457Y-37953D02*
D03*
X-196457Y-32953D02*
D03*
X-196457Y-85827D02*
D03*
X-201457Y-90827D02*
D03*
X-160787Y-128937D02*
D03*
X-155787Y-123937D02*
D03*
D33*
X-191457Y-37953D02*
D03*
X-191457Y-90827D02*
D03*
X-150787Y-128937D02*
D03*
D34*
X-148110Y-80000D02*
D03*
X-242953Y-59921D02*
D03*
D35*
X-307005Y-43314D02*
D03*
Y-53314D02*
D03*
X-47323Y-72205D02*
D03*
X-57323D02*
D03*
X-87205Y-77992D02*
D03*
Y-67992D02*
D03*
X-272362Y-53314D02*
D03*
Y-43314D02*
D03*
X-96929Y-116102D02*
D03*
X-106929D02*
D03*
D36*
X-266850Y-86181D02*
D03*
X-314094D02*
D03*
M02*
